<svg width="512" height="512" viewBox="0 0 512 512" fill="none" xmlns="http://www.w3.org/2000/svg">
<rect width="512" height="512" fill="#F3F3F3"/>
<path d="M216.556 121.401L339 99.0897C345.111 98.1973 350 104.11 350 110.245V248.799C350 270.441 332.556 287.844 311.111 287.844C289.667 287.844 272.222 270.441 272.222 248.799C272.222 227.269 289.667 209.754 311.111 209.754C317.111 209.754 322.667 211.316 327.778 213.659V143.713L227.778 166.024V265.533C225.111 284.498 208.444 299 188.889 299C167.444 299 150 281.597 150 259.955C150 238.425 167.444 220.91 188.889 220.91C194.889 220.91 200.444 222.472 205.556 224.815V132.557C205.556 126.421 210.444 122.405 216.556 121.401Z" fill="#CBCBCB"/>
<path d="M173.934 391L170.207 378.766H151.469L147.742 391H136L154.141 339.391H167.465L185.676 391H173.934ZM167.605 369.625C164.16 358.539 162.215 352.27 161.77 350.816C161.348 349.363 161.043 348.215 160.855 347.371C160.082 350.371 157.867 357.789 154.211 369.625H167.605ZM234.016 339.602V372.859C234.016 376.656 233.16 379.984 231.449 382.844C229.762 385.703 227.312 387.895 224.102 389.418C220.891 390.941 217.094 391.703 212.711 391.703C206.102 391.703 200.969 390.016 197.312 386.641C193.656 383.242 191.828 378.602 191.828 372.719V339.602H202.691V371.066C202.691 375.027 203.488 377.934 205.082 379.785C206.676 381.637 209.312 382.562 212.992 382.562C216.555 382.562 219.133 381.637 220.727 379.785C222.344 377.91 223.152 374.98 223.152 370.996V339.602H234.016ZM289.246 364.809C289.246 373.27 286.832 379.75 282.004 384.25C277.199 388.75 270.25 391 261.156 391H246.602V339.602H262.738C271.129 339.602 277.645 341.816 282.285 346.246C286.926 350.676 289.246 356.863 289.246 364.809ZM277.926 365.09C277.926 354.051 273.051 348.531 263.301 348.531H257.5V382H262.176C272.676 382 277.926 376.363 277.926 365.09ZM299.898 391V339.602H310.797V391H299.898ZM370.387 365.23C370.387 373.738 368.277 380.277 364.059 384.848C359.84 389.418 353.793 391.703 345.918 391.703C338.043 391.703 331.996 389.418 327.777 384.848C323.559 380.277 321.449 373.715 321.449 365.16C321.449 356.605 323.559 350.078 327.777 345.578C332.02 341.055 338.09 338.793 345.988 338.793C353.887 338.793 359.922 341.066 364.094 345.613C368.289 350.16 370.387 356.699 370.387 365.23ZM332.875 365.23C332.875 370.973 333.965 375.297 336.145 378.203C338.324 381.109 341.582 382.562 345.918 382.562C354.613 382.562 358.961 376.785 358.961 365.23C358.961 353.652 354.637 347.863 345.988 347.863C341.652 347.863 338.383 349.328 336.18 352.258C333.977 355.164 332.875 359.488 332.875 365.23Z" fill="#CBCBCB"/>
</svg>
