<svg width="512" height="512" viewBox="0 0 512 512" fill="none" xmlns="http://www.w3.org/2000/svg">
<rect width="512" height="512" fill="#F3F3F3"/>
<path d="M98.1133 336.809C98.1133 345.27 95.6992 351.75 90.8711 356.25C86.0664 360.75 79.1172 363 70.0234 363H55.4688V311.602H71.6055C79.9961 311.602 86.5117 313.816 91.1523 318.246C95.793 322.676 98.1133 328.863 98.1133 336.809ZM86.793 337.09C86.793 326.051 81.918 320.531 72.168 320.531H66.3672V354H71.043C81.543 354 86.793 348.363 86.793 337.09ZM155.418 337.23C155.418 345.738 153.309 352.277 149.09 356.848C144.871 361.418 138.824 363.703 130.949 363.703C123.074 363.703 117.027 361.418 112.809 356.848C108.59 352.277 106.48 345.715 106.48 337.16C106.48 328.605 108.59 322.078 112.809 317.578C117.051 313.055 123.121 310.793 131.02 310.793C138.918 310.793 144.953 313.066 149.125 317.613C153.32 322.16 155.418 328.699 155.418 337.23ZM117.906 337.23C117.906 342.973 118.996 347.297 121.176 350.203C123.355 353.109 126.613 354.562 130.949 354.562C139.645 354.562 143.992 348.785 143.992 337.23C143.992 325.652 139.668 319.863 131.02 319.863C126.684 319.863 123.414 321.328 121.211 324.258C119.008 327.164 117.906 331.488 117.906 337.23ZM187.902 319.934C183.801 319.934 180.625 321.48 178.375 324.574C176.125 327.645 175 331.934 175 337.441C175 348.902 179.301 354.633 187.902 354.633C191.512 354.633 195.883 353.73 201.016 351.926V361.066C196.797 362.824 192.086 363.703 186.883 363.703C179.406 363.703 173.688 361.441 169.727 356.918C165.766 352.371 163.785 345.855 163.785 337.371C163.785 332.027 164.758 327.352 166.703 323.344C168.648 319.312 171.438 316.23 175.07 314.098C178.727 311.941 183.004 310.863 187.902 310.863C192.895 310.863 197.91 312.07 202.949 314.484L199.434 323.344C197.512 322.43 195.578 321.633 193.633 320.953C191.688 320.273 189.777 319.934 187.902 319.934ZM253.82 311.602V344.859C253.82 348.656 252.965 351.984 251.254 354.844C249.566 357.703 247.117 359.895 243.906 361.418C240.695 362.941 236.898 363.703 232.516 363.703C225.906 363.703 220.773 362.016 217.117 358.641C213.461 355.242 211.633 350.602 211.633 344.719V311.602H222.496V343.066C222.496 347.027 223.293 349.934 224.887 351.785C226.48 353.637 229.117 354.562 232.797 354.562C236.359 354.562 238.938 353.637 240.531 351.785C242.148 349.91 242.957 346.98 242.957 342.996V311.602H253.82ZM288.168 363L275.793 322.676H275.477C275.922 330.879 276.145 336.352 276.145 339.094V363H266.406V311.602H281.242L293.406 350.906H293.617L306.52 311.602H321.355V363H311.195V338.672C311.195 337.523 311.207 336.199 311.23 334.699C311.277 333.199 311.441 329.215 311.723 322.746H311.406L298.152 363H288.168ZM363.93 363H334.328V311.602H363.93V320.531H345.227V331.816H362.629V340.746H345.227V354H363.93V363ZM420.285 363H406.434L384.074 324.117H383.758C384.203 330.984 384.426 335.883 384.426 338.812V363H374.688V311.602H388.434L410.758 350.098H411.004C410.652 343.418 410.477 338.695 410.477 335.93V311.602H420.285V363ZM453.086 363H442.188V320.672H428.23V311.602H467.043V320.672H453.086V363Z" fill="#CBCBCB"/>
<path d="M289 106H199V266H319V136H289V106ZM199 86H299L339 126V266C339 271.304 336.893 276.391 333.142 280.142C329.391 283.893 324.304 286 319 286H199C193.696 286 188.609 283.893 184.858 280.142C181.107 276.391 179 271.304 179 266V106C179 100.696 181.107 95.6086 184.858 91.8579C188.609 88.1071 193.696 86 199 86ZM219 176H299V196H219V176ZM219 216H299V236H219V216Z" fill="#CBCBCB"/>
</svg>
