<svg width="1129" height="507" viewBox="0 0 1129 507" fill="none" xmlns="http://www.w3.org/2000/svg">
<rect width="1129" height="507" fill="#F2F2F2"/>
<path d="M565.333 254C611.358 254 648.667 204 648.667 204C648.667 204 611.358 154 565.333 154C519.308 154 482 204 482 204C482 204 519.308 254 565.333 254Z" stroke="#CCCCCC" stroke-width="10" stroke-linejoin="round"/>
<path d="M565.333 224.833C570.859 224.833 576.158 222.638 580.065 218.731C583.972 214.824 586.167 209.525 586.167 204C586.167 198.475 583.972 193.176 580.065 189.269C576.158 185.362 570.859 183.167 565.333 183.167C559.808 183.167 554.509 185.362 550.602 189.269C546.695 193.176 544.5 198.475 544.5 204C544.5 209.525 546.695 214.824 550.602 218.731C554.509 222.638 559.808 224.833 565.333 224.833Z" stroke="#CCCCCC" stroke-width="10" stroke-linejoin="round"/>
<path d="M451.098 315.98V335H442.203V283.812H461.785C467.504 283.812 472.039 285.301 475.391 288.277C478.766 291.254 480.453 295.191 480.453 300.09C480.453 305.105 478.801 309.008 475.496 311.797C472.215 314.586 467.609 315.98 461.68 315.98H451.098ZM451.098 308.844H461.785C464.949 308.844 467.363 308.105 469.027 306.629C470.691 305.129 471.523 302.973 471.523 300.16C471.523 297.395 470.68 295.191 468.992 293.551C467.305 291.887 464.984 291.031 462.031 290.984H451.098V308.844ZM507.348 304.766C506.223 304.578 505.062 304.484 503.867 304.484C499.953 304.484 497.316 305.984 495.957 308.984V335H487.414V296.961H495.57L495.781 301.215C497.844 297.91 500.703 296.258 504.359 296.258C505.578 296.258 506.586 296.422 507.383 296.75L507.348 304.766ZM528.793 335.703C523.379 335.703 518.984 334.004 515.609 330.605C512.258 327.184 510.582 322.637 510.582 316.965V315.91C510.582 312.113 511.309 308.727 512.762 305.75C514.238 302.75 516.301 300.418 518.949 298.754C521.598 297.09 524.551 296.258 527.809 296.258C532.988 296.258 536.984 297.91 539.797 301.215C542.633 304.52 544.051 309.195 544.051 315.242V318.688H519.195C519.453 321.828 520.496 324.312 522.324 326.141C524.176 327.969 526.496 328.883 529.285 328.883C533.199 328.883 536.387 327.301 538.848 324.137L543.453 328.531C541.93 330.805 539.891 332.574 537.336 333.84C534.805 335.082 531.957 335.703 528.793 335.703ZM527.773 303.113C525.43 303.113 523.531 303.934 522.078 305.574C520.648 307.215 519.734 309.5 519.336 312.43H535.613V311.797C535.426 308.938 534.664 306.781 533.328 305.328C531.992 303.852 530.141 303.113 527.773 303.113ZM563.633 324.172L571.684 296.961H580.508L567.324 335H559.906L546.617 296.961H555.477L563.633 324.172ZM594.957 335H586.414V296.961H594.957V335ZM585.887 287.082C585.887 285.77 586.297 284.68 587.117 283.812C587.961 282.945 589.156 282.512 590.703 282.512C592.25 282.512 593.445 282.945 594.289 283.812C595.133 284.68 595.555 285.77 595.555 287.082C595.555 288.371 595.133 289.449 594.289 290.316C593.445 291.16 592.25 291.582 590.703 291.582C589.156 291.582 587.961 291.16 587.117 290.316C586.297 289.449 585.887 288.371 585.887 287.082ZM621.043 335.703C615.629 335.703 611.234 334.004 607.859 330.605C604.508 327.184 602.832 322.637 602.832 316.965V315.91C602.832 312.113 603.559 308.727 605.012 305.75C606.488 302.75 608.551 300.418 611.199 298.754C613.848 297.09 616.801 296.258 620.059 296.258C625.238 296.258 629.234 297.91 632.047 301.215C634.883 304.52 636.301 309.195 636.301 315.242V318.688H611.445C611.703 321.828 612.746 324.312 614.574 326.141C616.426 327.969 618.746 328.883 621.535 328.883C625.449 328.883 628.637 327.301 631.098 324.137L635.703 328.531C634.18 330.805 632.141 332.574 629.586 333.84C627.055 335.082 624.207 335.703 621.043 335.703ZM620.023 303.113C617.68 303.113 615.781 303.934 614.328 305.574C612.898 307.215 611.984 309.5 611.586 312.43H627.863V311.797C627.676 308.938 626.914 306.781 625.578 305.328C624.242 303.852 622.391 303.113 620.023 303.113ZM676.379 323.223L682.426 296.961H690.758L680.387 335H673.355L665.199 308.879L657.184 335H650.152L639.746 296.961H648.078L654.23 322.941L662.035 296.961H668.469L676.379 323.223Z" fill="#CCCCCC"/>
</svg>
