<svg width="1315" height="322" viewBox="0 0 1315 322" fill="none" xmlns="http://www.w3.org/2000/svg">
<path d="M364.359 59.9062V228.656H444.234V261H327.094V59.9062H364.359ZM511.172 159.891C511.172 206.672 531.938 230.062 573.469 230.062C613.969 230.062 634.219 206.672 634.219 159.891C634.219 113.859 613.969 90.8438 573.469 90.8438C531.938 90.8438 511.172 113.859 511.172 159.891ZM472.5 160.734C472.5 92.5781 506.156 58.5 573.469 58.5C639.75 58.5 672.891 92.5781 672.891 160.734C672.891 228.516 639.75 262.406 573.469 262.406C509.156 262.406 475.5 228.516 472.5 160.734ZM708.188 260.719V59.9062H799.594C840.656 59.9062 861.188 77.8594 861.188 113.766C861.188 138.047 845.203 158.156 813.234 174.094L876.938 261H829.969L768.797 173.391V156.375C804.422 150.281 822.234 136.453 822.234 114.891C822.234 100.078 813.891 92.6719 797.203 92.6719H746.156V260.719H708.188ZM915.328 261H877.078L962.438 59.9062H1002.52L1089.7 261H1049.62L1026.7 206.156H959.906L972.703 173.812H1013.2L981.562 98.2969L915.328 261ZM1114.31 261V59.9062H1151.58L1257.75 206.438V59.9062H1293.61V261H1256.34L1150.17 111.375V261H1114.31Z" fill="url(#paint0_diamond)"/>
<path d="M364.359 59.9062V228.656H444.234V261H327.094V59.9062H364.359ZM511.172 159.891C511.172 206.672 531.938 230.062 573.469 230.062C613.969 230.062 634.219 206.672 634.219 159.891C634.219 113.859 613.969 90.8438 573.469 90.8438C531.938 90.8438 511.172 113.859 511.172 159.891ZM472.5 160.734C472.5 92.5781 506.156 58.5 573.469 58.5C639.75 58.5 672.891 92.5781 672.891 160.734C672.891 228.516 639.75 262.406 573.469 262.406C509.156 262.406 475.5 228.516 472.5 160.734ZM708.188 260.719V59.9062H799.594C840.656 59.9062 861.188 77.8594 861.188 113.766C861.188 138.047 845.203 158.156 813.234 174.094L876.938 261H829.969L768.797 173.391V156.375C804.422 150.281 822.234 136.453 822.234 114.891C822.234 100.078 813.891 92.6719 797.203 92.6719H746.156V260.719H708.188ZM915.328 261H877.078L962.438 59.9062H1002.52L1089.7 261H1049.62L1026.7 206.156H959.906L972.703 173.812H1013.2L981.562 98.2969L915.328 261ZM1114.31 261V59.9062H1151.58L1257.75 206.438V59.9062H1293.61V261H1256.34L1150.17 111.375V261H1114.31Z" fill="white"/>
<path d="M273.242 155.506C267.04 96.5228 223.41 48.6898 166.537 36.1922L132.616 160.958C121.656 192.084 144.855 194.203 157.824 191.372L273.242 155.506Z" fill="url(#paint1_diamond)"/>
<path d="M273.242 155.506C267.04 96.5228 223.41 48.6898 166.537 36.1922L132.616 160.958C121.656 192.084 144.855 194.203 157.824 191.372L273.242 155.506Z" fill="white"/>
<path d="M137 307C204.547 307 260.677 258.115 271.941 193.794L157.824 226.992C79.7888 242.994 83.296 189.637 94.804 160.958L129.59 33.197C57.3728 37.0459 0 96.8229 0 170C0 245.663 61.337 307 137 307Z" fill="url(#paint2_diamond)"/>
<path d="M137 307C204.547 307 260.677 258.115 271.941 193.794L157.824 226.992C79.7888 242.994 83.296 189.637 94.804 160.958L129.59 33.197C57.3728 37.0459 0 96.8229 0 170C0 245.663 61.337 307 137 307Z" fill="white"/>
<defs>
<radialGradient id="paint0_diamond" cx="0" cy="0" r="1" gradientUnits="userSpaceOnUse" gradientTransform="translate(901.31 120.75) rotate(18.6783) scale(628.407 404.591)">
<stop stop-color="#FF00A8"/>
<stop offset="1" stop-color="#FF9B05"/>
</radialGradient>
<radialGradient id="paint1_diamond" cx="0" cy="0" r="1" gradientUnits="userSpaceOnUse" gradientTransform="translate(161.66 135.75) rotate(46.65) scale(235.501 249.471)">
<stop stop-color="#FF00A8"/>
<stop offset="1" stop-color="#FF9B05"/>
</radialGradient>
<radialGradient id="paint2_diamond" cx="0" cy="0" r="1" gradientUnits="userSpaceOnUse" gradientTransform="translate(161.66 135.75) rotate(46.65) scale(235.501 249.471)">
<stop stop-color="#FF00A8"/>
<stop offset="1" stop-color="#FF9B05"/>
</radialGradient>
</defs>
</svg>
