<svg width="512" height="512" viewBox="0 0 512 512" fill="none" xmlns="http://www.w3.org/2000/svg">
<rect width="512" height="512" fill="#F3F3F3"/>
<path d="M180.789 311.602H191.793L174.32 363H162.438L145 311.602H156.004L165.672 342.188C166.211 343.992 166.762 346.102 167.324 348.516C167.91 350.906 168.273 352.57 168.414 353.508C168.672 351.352 169.551 347.578 171.051 342.188L180.789 311.602ZM198.297 363V311.602H209.195V363H198.297ZM264.777 336.809C264.777 345.27 262.363 351.75 257.535 356.25C252.73 360.75 245.781 363 236.688 363H222.133V311.602H238.27C246.66 311.602 253.176 313.816 257.816 318.246C262.457 322.676 264.777 328.863 264.777 336.809ZM253.457 337.09C253.457 326.051 248.582 320.531 238.832 320.531H233.031V354H237.707C248.207 354 253.457 348.363 253.457 337.09ZM305.031 363H275.43V311.602H305.031V320.531H286.328V331.816H303.73V340.746H286.328V354H305.031V363ZM362.441 337.23C362.441 345.738 360.332 352.277 356.113 356.848C351.895 361.418 345.848 363.703 337.973 363.703C330.098 363.703 324.051 361.418 319.832 356.848C315.613 352.277 313.504 345.715 313.504 337.16C313.504 328.605 315.613 322.078 319.832 317.578C324.074 313.055 330.145 310.793 338.043 310.793C345.941 310.793 351.977 313.066 356.148 317.613C360.344 322.16 362.441 328.699 362.441 337.23ZM324.93 337.23C324.93 342.973 326.02 347.297 328.199 350.203C330.379 353.109 333.637 354.562 337.973 354.562C346.668 354.562 351.016 348.785 351.016 337.23C351.016 325.652 346.691 319.863 338.043 319.863C333.707 319.863 330.438 321.328 328.234 324.258C326.031 327.164 324.93 331.488 324.93 337.23Z" fill="#CBCBCB"/>
<path d="M356 159V146.99C356.001 145.94 355.796 144.901 355.394 143.931C354.993 142.961 354.405 142.079 353.663 141.337C352.921 140.595 352.039 140.007 351.069 139.606C350.099 139.204 349.06 138.999 348.01 139H164.01C162.959 138.999 161.919 139.204 160.948 139.605C159.977 140.006 159.094 140.594 158.35 141.336C157.606 142.078 157.016 142.959 156.613 143.929C156.21 144.899 156.001 145.939 156 146.99V159H176V179H156V199H176V219H156V239H176V259H156V270.99C155.999 272.042 156.205 273.084 156.607 274.057C157.009 275.029 157.599 275.913 158.343 276.657C159.087 277.401 159.971 277.991 160.943 278.393C161.916 278.795 162.958 279.001 164.01 279H348.01C349.061 278.999 350.101 278.79 351.071 278.387C352.041 277.984 352.922 277.394 353.664 276.65C354.406 275.906 354.994 275.023 355.395 274.052C355.796 273.081 356.001 272.041 356 270.99V259H336V239H356V219H336V199H356V179H336V159H356ZM236 239V179L286 209L236 239Z" fill="#CBCBCB"/>
</svg>
